<?xml version="1.0" encoding="utf-8"?>
<!-- Generator: Adobe Illustrator 22.0.0, SVG Export Plug-In . SVG Version: 6.00 Build 0)  -->
<svg version="1.1" id="Layer_1" xmlns="http://www.w3.org/2000/svg" xmlns:xlink="http://www.w3.org/1999/xlink" x="0px" y="0px"
	 viewBox="0 0 267.3 105.3" style="enable-background:new 0 0 267.3 105.3;" xml:space="preserve">
<style type="text/css">
	.st0{fill:#FFFFFF;}
</style>
<g>
	<g>
		<path class="st0" d="M71.9,92.3c-14,0-35.1-14.3-48.3-20.6c-3.2,3.9-8.2,6.6-13.4,6.6c-4,0-7.4-2.4-7.4-6.6c0-4.6,3.9-7.3,8.1-7.3
			c3.2,0,6.2,0.9,9.2,1.9c1-3.1,1.3-7.3,1.3-11.4c0-3.1-0.1-6.2-0.1-8.6V28.5c0-10,6.6-20.3,17.5-20.3c7.1,0,13.7,4.5,13.7,12
			c0,3.1-2.3,6.9-5.7,6.9c-3,0-5.7-2.4-5.7-5.5c0-2.1,1.7-3.2,3.7-3.2c1.8,0,3.5,1.4,4.4,2.9c0.1-0.6,0.2-1,0.2-1.6
			c0-4.7-5.4-8.1-9.6-8.1c-8.8,0-10.1,8.8-10.1,19.9c0,5,0.2,10.4,0.2,15.8c0,8.1-0.6,15.9-3.9,21.2c12.4,5.3,34.1,17.9,46.9,17.9
			c4.5,0,10-2.2,11-7.2l2.7,1.1C84.6,87.9,79.8,92.3,71.9,92.3z M11.2,67.7c-2.6,0-5.2,1-5.2,4c0,2.2,1.9,3.4,4,3.4
			c4,0,7-2.5,8.8-5.8C16.4,68.5,13.8,67.7,11.2,67.7z"/>
	</g>
	<g>
		<path class="st0" d="M67.5,76.6c-2.2,0-4-1.1-5.3-2.9c-1.9,1.8-4.2,2.9-7,2.9c-7,0-11.6-6-11.6-12.7c0-6.4,4.4-13.2,11.3-13.2
			c2.2,0,4.2,0.8,6,1.9v-1.3h7.8v20.8c0,0.5,0.2,0.6,0.6,0.6c1.3,0,1.8-1.8,1.8-3h3.2C74.4,73.8,71.4,76.6,67.5,76.6z M61,57.1
			c-0.7-1.7-2.7-2.7-4-2.7c-3.7,0-4.8,5-4.8,9.5c0,4.4,1.1,8.9,4.8,8.9c1.6,0,3.1-1.5,4-2.6V57.1z"/>
		<path class="st0" d="M85.1,13.2h-6.6V9.9h21.2v3.3h-5.2l19.3,51.2c4-7.2,7.6-14.7,11.2-22c2.7-5.7,6.5-11,6.5-18
			c0-8.6-5.3-15.1-14.2-15.1c-4.8,0-12.4,3.5-12.4,9.2V19c3.9,0,6.1,2.7,6.1,5.5c0,2.1-1.1,3.8-3.3,3.8c-4.5,0-6.1-6-6.1-9.4
			c0-7.6,8.2-12.9,15.1-12.9c11.1,0,18,7.3,18,18.2c0,4.2-1,8.5-3,12.3L109.8,79L85.1,13.2z"/>
	</g>
	<g>
		<path class="st0" d="M142,76.8c-6.5,0-12.5-5.3-12.5-13.2c0-7.4,6.5-12.9,13.6-12.9c4,0,8.6,2.1,8.6,6.5c0,7-7.2,8.7-12.6,10.5
			c0,2.6,2.7,5.6,5,5.6c2.9,0,4.9-1.6,6.8-3.8l2.5,2.1C150.5,75.2,146.6,76.8,142,76.8z M138.9,64.5c3.4-1,9.5-2.6,9.5-7.1
			c0-2.3-2.1-3.2-4-3.2C141.7,54.2,138.9,58,138.9,64.5z"/>
	</g>
	<g>
		<path class="st0" d="M184.7,76.6c-3.8,0-6.8-3-6.8-6.8V56.4c0-1.4-1.3-2.1-2.5-2.1c-1.5,0-5.8,1.8-5.8,6.1v16h-7.9V55.1
			c0-0.5-0.2-0.7-0.7-0.7c-0.9,0-1.6,1.7-1.6,3h-3.3c0-3.8,3-6.8,6.8-6.8c3,0,5.2,1.4,6.2,4.1c2.2-2.4,5.6-4.1,8.9-4.1
			c7.1,0,8.2,4.8,8.2,8.1c0,2.9-0.2,10.6-0.2,13.2c0,0.7,0.3,0.8,0.6,0.8c1,0,1.5-2.2,1.6-3h3.3C191.5,73.6,188.5,76.6,184.7,76.6z"
			/>
		<path class="st0" d="M201.1,102c-1.9,0-4.1-0.9-5.5-2.3l2.3-2.3c1.3,0.7,1.7,1.3,3.3,1.3v-48h7.9v43.5
			C209.1,98.5,205.2,102,201.1,102z M205,41.7c-2.7,0-4.9-2.3-4.9-5s2.1-5.2,4.9-5.2c2.9,0,5.2,2.3,5.2,5.2S207.9,41.7,205,41.7z"/>
		<path class="st0" d="M238.1,76.6c-2.2,0-4-1.1-5.3-2.9c-1.9,1.8-4.2,2.9-7,2.9c-7,0-11.6-6-11.6-12.7c0-6.4,4.4-13.2,11.3-13.2
			c2.2,0,4.2,0.8,6,1.9v-1.3h7.8v20.8c0,0.5,0.2,0.6,0.6,0.6c1.3,0,1.8-1.8,1.8-3h3.2C245,73.8,242,76.6,238.1,76.6z M231.6,57.1
			c-0.7-1.7-2.7-2.7-4-2.7c-3.7,0-4.8,5-4.8,9.5c0,4.4,1.1,8.9,4.8,8.9c1.6,0,3.1-1.5,4-2.6V57.1z"/>
		<path class="st0" d="M260.3,14.6c-0.8-0.9-1.9-1.4-3.3-1.4v59.1c0,0.3,0.2,0.6,0.6,0.6c0.9,0,1.7-2.2,1.7-3h3.3
			c0,3.8-3,6.8-6.8,6.8c-3.8,0-6.8-3-6.8-6.8v-52c0-4.4,3.7-8,8-8c2.1,0,4.1,0.8,5.6,2.3L260.3,14.6z"/>
	</g>
</g>
</svg>
