<svg width="123" height="46" viewBox="0 0 123 46" fill="none" xmlns="http://www.w3.org/2000/svg">
<path fill-rule="evenodd" clip-rule="evenodd" d="M72.2528 28.8316C71.8607 29.2996 71.4126 29.6926 70.9459 30.0108C70.4791 30.329 69.9377 30.4787 69.3029 30.4787C68.7988 30.4787 68.3134 30.2167 67.828 29.6739C67.3426 29.1311 67.0998 28.5883 67.0998 28.0268C67.6973 27.821 68.3134 27.6151 68.9482 27.4092C69.5829 27.1846 70.1804 26.9226 70.7218 26.5857C71.2632 26.2488 71.7113 25.837 72.0661 25.3316C72.4208 24.8263 72.5888 24.1899 72.5888 23.4226C72.5888 22.9172 72.4768 22.5054 72.2341 22.1498C72.01 21.7942 71.7113 21.5135 71.3566 21.2702C71.0019 21.0456 70.6098 20.8584 70.1617 20.7461C69.7136 20.6338 69.2656 20.5776 68.8362 20.5776C68.0707 20.5776 67.3239 20.7274 66.6144 21.0081C65.905 21.2889 65.2702 21.6819 64.7101 22.1873C64.1687 22.6926 63.7206 23.2915 63.3845 23.9841C63.0485 24.6766 62.8804 25.4439 62.8804 26.23C62.8804 27.091 63.0298 27.8771 63.3285 28.5883C63.6272 29.2808 64.0193 29.8985 64.5234 30.3851C65.0275 30.8905 65.6062 31.2835 66.2784 31.5643C66.9505 31.845 67.6226 31.9948 68.3321 31.9948C70.4044 31.9948 72.0661 31.2461 73.3169 29.7488L72.2528 28.8316ZM67.772 23.2541C68.2761 22.468 68.8175 22.075 69.4149 22.075C69.8443 22.075 70.2551 22.1873 70.6098 22.3931C70.9832 22.6177 71.1512 22.9734 71.1512 23.4787C71.1512 23.9841 71.0019 24.3958 70.7031 24.7327C70.4044 25.0696 70.0497 25.3504 69.6203 25.575C69.2095 25.7996 68.7615 26.0054 68.2761 26.1739C67.7906 26.3423 67.3612 26.4734 67.0065 26.5669C67.0065 25.1445 67.2679 24.0402 67.772 23.2541Z" fill="white"/>
<path fill-rule="evenodd" clip-rule="evenodd" d="M89.8958 28.9813C89.8958 29.8235 89.6158 30.5161 89.0557 31.0588C88.4956 31.6016 87.7861 31.8824 86.9647 31.8824C86.1432 31.8824 85.4524 31.6016 84.8923 31.0401C84.3322 30.4786 84.0522 29.7674 84.0522 28.9439V23.0856C84.0522 22.7861 83.9401 22.5615 83.6974 22.4118C83.4734 22.262 83.212 22.1872 82.9506 22.1872C82.7826 22.1872 82.5586 22.2433 82.2785 22.3369C81.9985 22.4305 81.7184 22.5989 81.4384 22.8048C81.1583 23.0294 80.9156 23.2915 80.7102 23.6284C80.5049 23.9653 80.4115 24.3583 80.4115 24.8262V31.8262H76.9576V22.5241C76.9576 22.3182 76.8642 22.2246 76.6588 22.2246C76.4535 22.2246 76.2854 22.3743 76.1548 22.6738C76.0241 22.9733 75.9494 23.254 75.9494 23.5161H74.4931C74.4931 22.6738 74.7732 21.9813 75.3333 21.4198C75.8934 20.8583 76.6028 20.5776 77.4243 20.5776C78.7499 20.5776 79.646 21.1765 80.1128 22.3743C80.5795 21.8316 81.1583 21.4011 81.8678 21.0642C82.5586 20.7273 83.2867 20.5588 84.0148 20.5588C84.7803 20.5588 85.3964 20.6711 85.8631 20.9145C86.3299 21.1391 86.7033 21.4572 86.946 21.7941C87.1887 22.1497 87.3567 22.5241 87.4314 22.9546C87.5061 23.385 87.5621 23.7781 87.5621 24.1337C87.5621 24.4332 87.5621 24.8637 87.5434 25.3877C87.5248 25.9305 87.5248 26.492 87.5248 27.0722C87.5248 27.6524 87.5248 28.2139 87.5061 28.738C87.4874 29.262 87.4874 29.6551 87.4874 29.9171C87.4874 30.1417 87.5621 30.2727 87.7301 30.2727C87.9542 30.2727 88.1222 30.1043 88.2342 29.7487C88.3276 29.3931 88.4023 29.131 88.4396 28.9813H89.8958V28.9813Z" fill="white"/>
<path fill-rule="evenodd" clip-rule="evenodd" d="M97.6252 39.5937C97.6252 40.5295 97.2705 41.3343 96.5423 41.9894C95.8329 42.6632 95.0114 42.9814 94.1153 42.9814C93.1818 42.9814 92.3789 42.6445 91.7255 41.9894L92.7337 40.9787C92.9951 41.1472 93.2191 41.2782 93.3871 41.3718C93.5552 41.4653 93.8165 41.5215 94.1899 41.5215V20.5776H97.6439V39.5937H97.6252Z" fill="white"/>
<path fill-rule="evenodd" clip-rule="evenodd" d="M98.0733 14.4386C98.0733 15.0562 97.8493 15.5803 97.4199 15.9921C96.9905 16.4038 96.449 16.6097 95.8143 16.6097C95.2168 16.6097 94.7127 16.3851 94.2833 15.9733C93.8726 15.5429 93.6672 15.0375 93.6672 14.4386C93.6672 13.8396 93.8726 13.3343 94.2646 12.8851C94.6567 12.4359 95.1795 12.2113 95.8143 12.2113C96.449 12.2113 96.9718 12.4359 97.4199 12.8477C97.8679 13.2969 98.0733 13.8209 98.0733 14.4386Z" fill="white"/>
<path fill-rule="evenodd" clip-rule="evenodd" d="M111.852 28.9814C111.852 29.2434 111.777 29.5242 111.665 29.8236C111.534 30.1231 111.348 30.2728 111.105 30.2728C110.956 30.2728 110.862 30.198 110.862 30.0295V20.8771H107.408V21.4199C107.035 21.1579 106.643 20.952 106.176 20.8022C105.728 20.6525 105.261 20.5776 104.794 20.5776C104.029 20.5776 103.338 20.7461 102.722 21.083C102.106 21.4199 101.583 21.8504 101.173 22.4119C100.762 22.9546 100.426 23.5723 100.202 24.2648C99.9776 24.9573 99.847 25.6498 99.847 26.3423C99.847 27.0723 99.959 27.7835 100.202 28.4386C100.426 29.1124 100.78 29.6926 101.229 30.2167C101.677 30.7407 102.218 31.1338 102.834 31.452C103.45 31.7514 104.141 31.9012 104.907 31.9012C106.045 31.9012 107.054 31.4894 107.95 30.6472C108.211 31.0215 108.547 31.321 108.939 31.5456C109.331 31.7702 109.779 31.9012 110.246 31.9012C111.105 31.9012 111.833 31.6391 112.393 31.0964C112.953 30.5536 113.233 29.8611 113.233 29.0001H111.852V28.9814ZM107.408 29.1311C107.203 29.3931 106.96 29.6739 106.661 29.9172C106.363 30.1605 106.027 30.2915 105.653 30.2915C105.261 30.2915 104.925 30.1792 104.664 29.9359C104.402 29.7113 104.178 29.3931 104.01 29.0188C103.842 28.6445 103.73 28.2327 103.656 27.7648C103.581 27.2969 103.562 26.829 103.562 26.3611C103.562 25.8557 103.6 25.3691 103.656 24.8824C103.73 24.3958 103.842 23.9466 104.01 23.5536C104.178 23.1605 104.402 22.8236 104.664 22.5616C104.925 22.3183 105.261 22.1873 105.653 22.1873C105.915 22.1873 106.232 22.2996 106.605 22.5054C106.979 22.73 107.24 23.0295 107.408 23.3851V29.1311Z" fill="white"/>
<path fill-rule="evenodd" clip-rule="evenodd" d="M119.954 4.76207C119.581 4.36902 119.114 4.16314 118.498 4.16314V29.992C118.498 30.1605 118.573 30.2353 118.741 30.2353C118.946 30.2353 119.114 30.0669 119.264 29.7113C119.413 29.3557 119.488 29.0936 119.488 28.9439H120.944C120.944 29.7861 120.664 30.4786 120.104 31.0401C119.544 31.6016 118.834 31.8824 118.013 31.8824C117.173 31.8824 116.482 31.6016 115.922 31.0401C115.362 30.4786 115.082 29.7674 115.082 28.9439V6.20325C115.082 5.22998 115.418 4.40646 116.108 3.73266C116.799 3.04015 117.621 2.70325 118.573 2.70325C119.544 2.70325 120.347 3.04015 121.019 3.69523L119.954 4.76207Z" fill="white"/>
<path fill-rule="evenodd" clip-rule="evenodd" d="M43.5383 4.16314H40.6445V2.70325H49.8861V4.16314H47.6457L56.0846 26.5482C56.9434 24.9385 57.7835 23.3476 58.5863 21.738C59.3891 20.1284 60.192 18.5375 60.9761 16.9278C61.2748 16.2915 61.5922 15.6738 61.9283 15.0749C62.2643 14.476 62.563 13.8583 62.8431 13.222C63.1231 12.5856 63.3658 11.9305 63.5339 11.238C63.7206 10.5455 63.8139 9.83426 63.8139 9.06688C63.8139 7.15779 63.2725 5.5856 62.1896 4.33159C61.1068 3.07758 59.5758 2.45993 57.6155 2.45993C57.0741 2.45993 56.514 2.55352 55.8979 2.74068C55.2817 2.92785 54.703 3.18988 54.1429 3.54549C53.6015 3.90111 53.1347 4.31287 52.7613 4.81822C52.3879 5.32357 52.2199 5.86635 52.2199 6.46528V6.7086C53.0787 6.7086 53.7508 6.95191 54.1989 7.45726C54.647 7.96261 54.871 8.50539 54.871 9.10432C54.871 9.57223 54.7403 9.96528 54.4976 10.2835C54.2549 10.6016 53.8815 10.7514 53.4148 10.7514C52.9107 10.7514 52.4999 10.6016 52.1639 10.3209C51.8278 10.0401 51.5664 9.68453 51.3611 9.27277C51.1557 8.861 51.0063 8.4118 50.913 7.92517C50.8196 7.43854 50.7636 7.00806 50.7636 6.65245C50.7636 5.8102 50.969 5.06154 51.3611 4.36902C51.7531 3.67651 52.2759 3.0963 52.9293 2.59095C53.5828 2.0856 54.2922 1.69255 55.0577 1.4118C55.8232 1.13106 56.5886 0.981323 57.3541 0.981323C59.7812 0.981323 61.7042 1.71127 63.1045 3.15245C64.5047 4.61234 65.1955 6.54015 65.1955 8.93587C65.1955 10.845 64.7661 12.623 63.8886 14.2888L54.3483 32.8557L43.5383 4.16314Z" fill="white"/>
<path fill-rule="evenodd" clip-rule="evenodd" d="M36.4999 33.492C36.0705 35.1952 35.3237 36.4867 34.2782 37.4038C33.2327 38.3022 31.8324 38.7514 30.1148 38.7514C28.5839 38.7514 26.8849 38.4145 25.0552 37.722C23.2069 37.0295 21.3399 36.2246 19.4356 35.2701C17.5313 34.3156 15.6829 33.3236 13.8906 32.3129C12.0983 31.3022 10.4927 30.4412 9.05509 29.73C8.3643 30.591 7.50548 31.3022 6.47864 31.8263C5.45179 32.369 4.36893 32.6311 3.24873 32.6311C2.38991 32.6311 1.64312 32.3877 0.989667 31.8824C0.354889 31.3771 0.0188293 30.6658 0.0188293 29.73C0.0188293 28.738 0.373559 27.9519 1.10169 27.3717C1.81115 26.8102 2.63262 26.5295 3.56612 26.5295C4.25691 26.5295 4.9477 26.6043 5.58248 26.7728C6.23593 26.9412 6.88937 27.1471 7.56149 27.3717C7.78553 26.6979 7.95356 25.9305 8.00957 25.0508C8.08425 24.1712 8.10292 23.2728 8.10292 22.3744C8.10292 21.7006 8.10292 21.0455 8.08425 20.3904C8.06558 19.7353 8.06558 19.1551 8.06558 18.6123V10.8637C8.06558 9.75941 8.23361 8.69256 8.58834 7.62572C8.94307 6.57759 9.44716 5.62304 10.1193 4.79951C10.7914 3.95727 11.5755 3.28347 12.509 2.77812C13.4425 2.25406 14.5067 2.01074 15.7016 2.01074C16.4671 2.01074 17.2139 2.12304 17.942 2.36636C18.6701 2.59096 19.3236 2.94657 19.865 3.39577C20.4064 3.84497 20.8545 4.40646 21.1906 5.04283C21.5266 5.69791 21.6947 6.42785 21.6947 7.2701C21.6947 7.607 21.6386 7.9439 21.5266 8.29951C21.4146 8.65513 21.2466 8.97331 21.0225 9.27277C20.7985 9.57224 20.5371 9.81555 20.2197 10.0027C19.9023 10.1899 19.5663 10.2835 19.1929 10.2835C18.5208 10.2835 17.942 10.0589 17.4379 9.59096C16.9338 9.12304 16.6911 8.56154 16.6911 7.88775C16.6911 7.41983 16.8405 7.06422 17.1579 6.83962C17.4752 6.61502 17.8486 6.484 18.278 6.484C18.6701 6.484 19.0435 6.61502 19.3982 6.85834C19.753 7.10165 20.0144 7.40112 20.1637 7.73802C20.2011 7.607 20.2197 7.4947 20.2384 7.3824C20.2571 7.28882 20.2571 7.1578 20.2571 7.02679C20.2571 6.52144 20.1264 6.05352 19.865 5.62304C19.6036 5.19256 19.2489 4.81823 18.8568 4.50005C18.4647 4.18187 17.998 3.93855 17.4939 3.75138C16.9898 3.56422 16.5044 3.47064 16.0377 3.47064C15.0668 3.47064 14.2827 3.69523 13.7039 4.14443C13.1251 4.59363 12.6771 5.21128 12.3783 5.99737C12.061 6.78347 11.8743 7.70058 11.7622 8.76743C11.6689 9.83427 11.6129 10.976 11.6129 12.1738C11.6129 13.2781 11.6315 14.4011 11.6689 15.5803C11.7062 16.7407 11.7249 17.9198 11.7249 19.0803C11.7249 20.8771 11.6315 22.5803 11.4262 24.1899C11.2208 25.7995 10.7541 27.1845 10.0446 28.345C10.9408 28.7193 11.9303 29.1685 13.0318 29.73C14.1333 30.2728 15.2909 30.8343 16.5044 31.4145C17.718 31.976 18.9502 32.5562 20.2011 33.1177C21.4519 33.6792 22.6842 34.2033 23.8977 34.6525C25.1113 35.1017 26.2875 35.476 27.4263 35.7567C28.5652 36.0375 29.592 36.1872 30.5255 36.1872C31.0296 36.1872 31.5337 36.1311 32.0565 36.0188C32.5792 35.9065 33.046 35.7193 33.5127 35.4386C33.9608 35.1765 34.3529 34.8396 34.6889 34.4653C35.025 34.0722 35.2304 33.6043 35.3424 33.0428L36.4999 33.492ZM7.03873 28.6819C6.49731 28.5134 5.95588 28.3637 5.39578 28.214C4.83568 28.0642 4.25691 27.9894 3.69681 27.9894C3.13671 27.9894 2.61395 28.1204 2.1472 28.3637C1.68046 28.607 1.45642 29.0562 1.45642 29.73C1.45642 30.1979 1.62445 30.5535 1.97917 30.8156C2.3339 31.0776 2.74464 31.2086 3.21139 31.2086C4.07021 31.2086 4.83568 30.9653 5.48913 30.4974C6.12391 29.992 6.64667 29.3931 7.03873 28.6819ZM31.2537 28.9813C31.2537 29.8423 30.9736 30.5535 30.4135 31.0776C29.8534 31.6204 29.1253 31.8824 28.2665 31.8824C27.7997 31.8824 27.3703 31.7701 26.9596 31.5268C26.5675 31.3022 26.2315 30.984 25.9701 30.6284C25.0739 31.4706 24.0471 31.8824 22.9269 31.8824C22.1614 31.8824 21.4706 31.7327 20.8545 31.4332C20.2384 31.1337 19.697 30.722 19.2489 30.1979C18.8008 29.6738 18.4647 29.0936 18.222 28.4198C17.998 27.746 17.8673 27.0535 17.8673 26.3236C17.8673 25.6311 17.9793 24.9385 18.222 24.246C18.4461 23.5535 18.7821 22.9359 19.1929 22.3931C19.6036 21.8503 20.1264 21.4011 20.7425 21.0642C21.3586 20.7273 22.0494 20.5589 22.8148 20.5589C23.2816 20.5589 23.7297 20.6337 24.1964 20.7835C24.6445 20.9332 25.0552 21.1391 25.4286 21.4011V20.8583H28.8826V30.0107C28.8826 30.1792 28.9573 30.2541 29.1253 30.2541C29.368 30.2541 29.5734 30.1043 29.6854 29.8049C29.8161 29.5054 29.8721 29.2246 29.8721 28.9626H31.2537V28.9813ZM25.41 23.3851C25.2419 23.0107 24.9806 22.7113 24.6072 22.5054C24.2338 22.2808 23.9164 22.1872 23.655 22.1872C23.2629 22.1872 22.9269 22.3182 22.6655 22.5615C22.4041 22.8049 22.1801 23.1418 22.012 23.5535C21.844 23.9466 21.732 24.3958 21.6573 24.8824C21.5826 25.369 21.564 25.8744 21.564 26.361C21.564 26.8289 21.6013 27.2968 21.6573 27.7648C21.732 28.2327 21.844 28.6632 22.012 29.0188C22.1801 29.3931 22.4041 29.6926 22.6655 29.9359C22.9269 30.1605 23.2629 30.2915 23.655 30.2915C24.0284 30.2915 24.3458 30.1605 24.6632 29.9172C24.9619 29.6738 25.2046 29.3931 25.41 29.1311V23.3851Z" fill="white"/>
<path d="M45.3307 22.2996H36.3691V27.5964H45.3307V22.2996Z" fill="white"/>
</svg>
